<?xml version="1.0" standalone="no"?><!DOCTYPE svg PUBLIC "-//W3C//DTD SVG 1.1//EN" "http://www.w3.org/Graphics/SVG/1.1/DTD/svg11.dtd"><svg t="1755282573116" class="icon" viewBox="0 0 1024 1024" version="1.1" xmlns="http://www.w3.org/2000/svg" p-id="1021" data-spm-anchor-id="a313x.collections_detail.0.i0.42a83a81n6yUSj" xmlns:xlink="http://www.w3.org/1999/xlink" width="200" height="200"><path d="M732.689655 105.931034c63.52331 0 127.046621 13.117793 190.569931 39.371035A105.984 105.984 0 0 1 988.689655 243.217655V801.015172a105.931034 105.931034 0 0 1-120.673103 104.871725l-7.485793-1.059311c-64.105931-8.880552-106.725517-13.329655-127.841104-13.329655-29.590069 0-101.376 8.721655-215.340138 26.164966-1.536 0.247172-3.177931 0.388414-4.819862 0.406069h-1.05931a35.539862 35.539862 0 0 1-4.872828-0.406069c-113.911172-17.44331-185.697103-26.164966-215.287172-26.164966-21.115586 0-63.735172 4.449103-127.823448 13.329655l-7.503449 1.059311A105.931034 105.931034 0 0 1 35.310345 801.015172V243.217655a105.931034 105.931034 0 0 1 65.447724-97.897931C164.263724 119.048828 227.787034 105.931034 291.310345 105.931034c63.52331 0 127.046621 13.117793 190.569931 39.371035 11.246345 4.660966 21.380414 11.122759 30.137379 18.961655a104.92469 104.92469 0 0 1 30.119724-18.944C605.643034 119.048828 669.166345 105.931034 732.689655 105.931034zM512 847.042207l3.425103-0.529655C625.381517 829.793103 695.278345 821.318621 730.041379 820.912552h2.665931c25.476414 0 70.196966 4.64331 137.604414 13.982896l7.556414 1.059311A35.310345 35.310345 0 0 0 918.068966 801.015172V243.217655c0-14.30069-8.615724-27.188966-21.786483-32.662069C841.145379 187.798069 786.767448 176.551724 732.689655 176.551724c-54.077793 0-108.455724 11.246345-163.557517 34.021517-3.707586 1.536-7.026759 3.61931-9.886897 6.179311l-47.104 42.390069-47.227586-42.266483a35.416276 35.416276 0 0 0-10.010483-6.302897C399.766069 187.798069 345.388138 176.551724 291.310345 176.551724c-54.077793 0-108.455724 11.246345-163.557517 34.021517A35.310345 35.310345 0 0 0 105.931034 243.23531v557.744552a35.310345 35.310345 0 0 0 40.289104 34.957241l7.556414-1.05931c67.336828-9.339586 112.057379-14.000552 137.533793-14.000552 34.109793 0 105.860414 8.651034 220.689655 26.164966z" fill="#bfbfbf" p-id="1022"></path><path d="M476.689655 353.103448m35.310345 0l0 0q35.310345 0 35.310345 35.310345l0 247.172414q0 35.310345-35.310345 35.310345l0 0q-35.310345 0-35.310345-35.310345l0-247.172414q0-35.310345 35.310345-35.310345Z" fill="#bfbfbf" p-id="1023"></path></svg>